<svg width="37" height="37" viewBox="0 0 37 37" fill="none" xmlns="http://www.w3.org/2000/svg">
<path d="M19.4999 23.3721L11.7856 24.7606L13.0714 16.9435L27.8056 2.26062C28.0447 2.01961 28.3291 1.82831 28.6424 1.69776C28.9558 1.56721 29.2919 1.5 29.6314 1.5C29.9708 1.5 30.3069 1.56721 30.6203 1.69776C30.9336 1.82831 31.218 2.01961 31.4571 2.26062L34.1828 4.98634C34.4238 5.22539 34.6151 5.50979 34.7457 5.82314C34.8762 6.13649 34.9434 6.47259 34.9434 6.81205C34.9434 7.15151 34.8762 7.48761 34.7457 7.80096C34.6151 8.11432 34.4238 8.39872 34.1828 8.63777L19.4999 23.3721Z" stroke="#3BA6EA" stroke-width="3" stroke-linecap="round" stroke-linejoin="round"/>
<path d="M31.0714 24.6578V32.3721C31.0714 33.0541 30.8005 33.7081 30.3183 34.1903C29.836 34.6726 29.182 34.9435 28.5 34.9435H4.07143C3.38944 34.9435 2.73539 34.6726 2.25315 34.1903C1.77092 33.7081 1.5 33.0541 1.5 32.3721V7.9435C1.5 7.26151 1.77092 6.60746 2.25315 6.12522C2.73539 5.64299 3.38944 5.37207 4.07143 5.37207H11.7857" stroke="#3BA6EA" stroke-width="3" stroke-linecap="round" stroke-linejoin="round"/>
</svg>
